<?xml version="1.0" standalone="no"?>
<!DOCTYPE svg PUBLIC "-//W3C//DTD SVG 20010904//EN"
 "http://www.w3.org/TR/2001/REC-SVG-20010904/DTD/svg10.dtd">
<svg version="1.0" xmlns="http://www.w3.org/2000/svg"
 width="100.000000pt" height="100.000000pt" viewBox="0 0 100.000000 100.000000"
 preserveAspectRatio="xMidYMid meet">

<g transform="translate(0.000000,100.000000) scale(0.100000,-0.100000)"
fill="#000000" stroke="none">
<path d="M431 806 l-194 -194 21 -69 c34 -111 35 -120 12 -143 -11 -11 -55
-37 -98 -59 -86 -43 -123 -82 -153 -162 -23 -59 -24 -91 -4 -128 38 -74 162
-62 263 26 18 15 54 69 80 118 55 104 64 109 158 75 33 -12 68 -23 79 -26 16
-4 63 38 213 188 l192 193 -188 188 -187 187 -194 -194z m229 -30 c0 -7 -7
-30 -15 -49 -35 -83 -7 -124 76 -113 l51 7 -6 -46 c-8 -53 -1 -85 20 -85 22 0
17 -13 -21 -50 l-36 -34 -162 162 -162 162 26 26 27 26 21 -21 c27 -27 55 -26
111 4 52 28 70 31 70 11z m-490 -611 c26 -32 -13 -81 -47 -59 -23 14 -28 41
-13 59 16 19 44 19 60 0z"/>
</g>
</svg>
